<?xml version="1.0" encoding="UTF-8" standalone="no"?>
<!-- Created with Inkscape (http://www.inkscape.org/) -->
<svg
   xmlns:svg="http://www.w3.org/2000/svg"
   xmlns="http://www.w3.org/2000/svg"
   version="1.0"
   width="449.263"
   height="582.19299"
   viewBox="0 0 449.263 582.193"
   id="Layer_1"
   xml:space="preserve"><defs
   id="defs142" />

<metadata>
<rdf:RDF
      xmlns="http://web.resource.org/cc/"
      xmlns:dc="http://purl.org/dc/elements/1.1/"
      xmlns:rdf="http://www.w3.org/1999/02/22-rdf-syntax-ns#">
      <Work rdf:about="">
         <dc:title>Rabbit</dc:title>
         <dc:description>Rabbit</dc:description>
         <dc:subject>
          <rdf:Bag>
            <rdf:li>animal</rdf:li>
            <rdf:li>cartoon</rdf:li>
	    <rdf:li>alice</rdf:li>
	    <rdf:li>rabbit</rdf:li>
          </rdf:Bag>
         </dc:subject>
         <dc:publisher><Agent rdf:about="http://www.openclipart.org/"><dc:title>Open Clip Art  Project</dc:title></Agent></dc:publisher>
         <dc:creator><Agent rdf:about=""><dc:title>John Tenniel - SVG by Gerald G.</dc:title></Agent></dc:creator>
         <dc:rights><Agent rdf:about="http://web.resource.org/cc/PublicDomain"><dc:title>Public  Domain</dc:title></Agent></dc:rights>
         <dc:date>2006/10/27</dc:date>
         <dc:format>image/svg+xml</dc:format>
         <dc:type>http://purl.org/dc/dcmitype/StillImage</dc:type>
         <license rdf:resource="http://web.resource.org/cc/PublicDomain" />
      </Work>
      <License rdf:about="http://web.resource.org/cc/PublicDomain">
         <permits rdf:resource="http://web.resource.org/cc/Reproduction" />
         <permits rdf:resource="http://web.resource.org/cc/Distribution" />
         <permits rdf:resource="http://web.resource.org/cc/DerivativeWorks" />
      </License>
   </rdf:RDF>
</metadata>

<path
   d="M 217.855,104.267 C 220.086,102.791 222.21,99.911 224.083,95.339 C 225.955,90.623 228.187,83.099 229.123,77.087 C 229.843,70.967 227.575,65.279 229.123,59.591 C 230.599,53.903 232.831,50.087 238.447,43.283 C 244.098,36.335 254.755,25.283 262.926,18.443 C 270.99,11.423 278.731,5.015 286.578,2.135 C 294.426,-0.673 306.378,-0.421 309.51,1.343 C 312.39,2.999 307.422,6.455 304.47,11.855 C 301.41,17.255 296.766,23.303 291.655,33.599 C 286.435,43.895 282.799,58.727 273.799,72.803 C 264.655,86.807 252.883,101.063 237.655,116.687 L 237.655,116.687 L 237.655,116.687 C 245.647,114.383 253.531,109.379 261.739,101.531 C 269.839,93.539 277.867,78.527 286.218,69.707 C 294.571,60.815 303.498,54.875 311.454,49.115 C 319.266,43.247 324.846,42.059 333.198,35.147 C 341.513,28.055 355.05,9.839 361.17,7.571 C 367.038,5.375 370.458,11.279 368.91,21.935 C 367.146,32.591 360.63,56.675 351.846,70.859 C 342.918,84.827 329.779,96.203 316.89,105.419 C 304.002,114.563 285.966,119.171 275.706,125.615 C 265.41,131.987 259.038,137.891 255.906,143.471 L 255.906,143.471 L 256.698,147.755 L 256.698,147.755 C 263.826,147.935 268.83,149.231 271.854,151.643 C 274.841,154.019 273.942,157.187 274.553,162.119 C 275.057,166.979 275.381,176.303 274.949,180.767 C 274.481,185.231 273.185,187.643 271.457,188.543 L 271.457,188.543 C 273.509,187.571 275.453,187.175 276.894,187.355 C 278.297,187.427 279.593,188.075 280.385,189.299 L 280.385,189.299 C 283.409,181.775 286.073,175.655 288.522,170.651 C 290.898,165.539 291.582,158.879 294.75,159.419 C 297.882,160.031 302.346,169.427 307.17,174.143 C 311.886,178.643 321.282,182.099 322.722,186.599 C 323.983,191.027 321.39,195.815 314.947,200.963 L 314.947,200.963 C 318.51,200.243 322.218,200.459 326.215,201.611 C 330.211,202.799 334.207,204.779 338.635,207.839 L 338.635,207.839 C 334.423,207.947 330.931,208.415 328.159,209.387 C 325.315,210.287 323.335,211.583 321.93,213.275 L 321.93,213.275 C 329.67,217.055 335.79,220.547 340.974,223.751 C 346.05,226.847 351.235,229.007 352.206,232.319 C 352.926,235.487 349.794,237.539 346.014,243.191 C 342.162,248.843 336.907,256.331 329.706,266.087 L 329.706,266.087 C 331.362,267.095 333.378,268.679 335.898,271.127 C 338.345,273.503 341.154,276.563 344.465,280.451 L 344.465,280.451 C 348.894,279.263 352.854,279.659 356.489,281.639 C 360.089,283.547 363.329,287.039 366.209,292.116 L 366.209,292.116 C 373.337,284.484 380.573,277.716 388.35,271.524 C 396.018,265.26 405.053,257.88 412.398,255.216 C 419.706,252.48 425.717,251.832 431.837,255.612 C 437.885,259.464 445.589,270.876 448.146,277.752 C 450.414,284.448 448.938,290.028 445.805,295.607 C 442.53,301.116 437.093,306.12 429.102,310.763 L 429.102,310.763 C 429.929,314.147 431.406,317.243 433.385,320.448 C 435.365,323.508 437.993,326.532 441.125,329.376 L 441.125,329.376 C 432.809,332.616 424.205,335.46 414.737,337.908 C 405.161,340.139 392.921,341.435 384.821,343.739 C 376.757,346.116 370.673,348.744 366.569,351.912 L 366.569,351.912 L 366.569,395.004 L 366.569,395.004 C 372.041,397.128 376.216,400.224 379.781,404.724 C 383.129,409.152 387.989,414.444 387.161,421.428 C 386.224,428.376 381.113,441.984 374.741,445.872 C 368.261,449.508 355.049,446.916 348.713,443.928 C 342.305,440.724 337.877,433.668 336.69,427.62 C 335.465,421.536 337.337,413.22 341.334,407.819 C 345.258,402.383 351.378,398.063 359.982,395.004 L 359.982,395.004 L 359.586,356.556 L 359.586,356.556 C 358.326,357.06 355.482,358.86 351.054,362.388 C 346.554,365.844 340.47,370.632 332.802,377.148 L 332.802,377.148 C 332.838,379.669 333.487,382.909 334.746,386.869 C 336.006,390.793 337.77,395.4 340.182,400.837 L 340.182,400.837 C 333.199,403.501 327.726,405.913 323.479,408.217 C 319.266,410.485 316.422,412.501 314.947,414.408 L 314.947,414.408 L 318.043,428.413 L 318.043,428.413 C 310.159,430.033 302.491,431.4 294.751,432.661 C 286.939,433.957 279.451,434.82 271.855,435.793 L 271.855,435.793 C 270.378,439.213 269.334,443.425 268.327,448.572 C 267.39,453.648 269.083,461.136 266.023,466.465 C 262.747,471.612 253.098,475.717 249.319,480.037 C 245.466,484.32 247.411,487.812 243.487,492.457 C 239.419,496.993 229.302,501.853 225.631,507.612 C 221.923,513.444 221.779,520.068 221.743,526.656 C 221.743,533.028 223.039,540.156 225.235,545.665 C 227.287,551.028 229.339,554.881 234.163,558.877 C 238.915,562.765 249.175,565.429 253.963,568.957 C 258.751,572.377 262.675,577.633 262.531,579.469 C 262.135,581.161 258.678,581.161 252.019,579.469 L 252.019,579.469 C 248.634,581.377 245.539,582.277 242.731,582.169 C 239.85,582.024 237.258,580.908 234.955,578.677 L 234.955,578.677 C 232.219,579.289 230.023,579.469 227.971,579.073 C 225.919,578.641 224.228,577.777 222.896,576.338 L 222.896,576.338 C 220.304,577.814 217.459,577.994 214.364,576.734 C 211.16,575.367 206.876,572.45 204.284,568.959 C 201.656,565.431 200.36,558.986 198.848,556.143 C 197.192,553.263 196.4,557.403 194.959,551.895 C 193.375,546.279 191.72,525.651 190.279,522.771 C 188.875,519.891 187.759,528.351 186.787,534.399 C 185.851,540.447 185.599,552.363 184.483,558.483 C 183.187,564.315 182.647,566.727 179.407,569.752 C 175.951,572.775 168.571,575.296 165.043,576.34 C 161.552,577.168 159.535,576.916 158.852,575.188 L 158.852,575.188 C 156.656,577.816 153.631,579.4 149.923,580.228 C 146.071,580.984 141.68,580.804 136.316,579.832 L 136.316,579.832 C 129.728,580.336 125.372,580.516 123.104,580.228 C 120.835,579.94 120.656,579.292 122.708,578.284 L 122.708,578.284 C 118.568,577.024 116.553,575.656 116.517,574.037 C 116.372,572.417 119.792,570.688 122.349,568.564 C 124.905,566.296 127.964,562.516 131.672,560.824 C 135.345,559.096 140.132,561.184 144.092,558.484 C 147.945,555.604 152.084,552.293 154.569,544.12 C 156.909,535.732 158.205,524.356 158.457,509.165 L 158.457,509.165 C 151.581,504.377 146.325,499.948 142.545,495.196 C 138.766,490.408 136.606,485.98 135.921,481.228 L 135.921,481.228 C 127.461,474.46 122.025,469.42 119.217,465.676 C 116.337,461.896 120.873,462.436 119.217,459.088 C 117.526,455.487 110.974,450.628 109.138,445.48 C 107.266,440.368 106.833,434.932 107.986,428.776 L 107.986,428.776 C 96.754,423.448 85.414,418.552 73.425,413.944 C 61.365,409.228 44.013,404.404 36.525,401.129 C 29.109,397.925 29.901,397.205 28.749,394.541 C 27.381,391.625 26.409,391.444 28.749,384.425 C 31.089,377.261 35.805,366.28 42.753,352.601 C 49.629,338.813 62.806,315.809 69.934,302.885 C 76.881,289.961 79.762,287.189 84.694,275.813 C 89.518,264.329 94.306,250.829 99.058,234.629 L 99.058,234.629 L 90.49,239.309 L 90.49,239.309 C 88.078,242.441 86.53,245.753 85.45,249.389 C 84.334,252.989 84.082,256.877 84.298,261.053 L 84.298,261.053 C 75.227,255.221 65.614,251.513 55.174,249.785 C 44.626,248.021 33.682,248.237 21.766,250.577 L 21.766,250.577 L 22.162,233.081 L 22.162,233.081 C 17.986,233.261 14.242,232.613 10.498,231.137 C 6.646,229.661 -0.086,229.373 0.022,224.153 C 0.094,218.717 4.594,209.789 11.29,199.313 C 18.022,188.765 27.454,176.381 40.018,161.621 L 40.018,161.621 C 36.706,161.189 34.474,160.073 33.034,158.129 C 31.594,156.149 31.126,153.484 31.486,149.993 L 31.486,149.993 C 28.102,148.805 24.178,149.273 19.426,151.541 C 14.674,153.737 9.238,157.625 3.118,163.205 L 3.118,163.205 C 2.362,160.685 2.11,156.329 2.362,149.993 C 2.614,143.513 3.334,135.413 4.666,125.153 L 4.666,125.153 C 5.134,129.833 8.59,133.757 15.178,136.781 C 21.766,139.877 31.162,141.893 43.906,143.369 L 43.906,143.369 C 43.726,140.777 44.158,139.013 45.058,137.933 C 45.922,136.817 47.398,136.385 49.342,136.781 L 49.342,136.781 C 48.767,134.441 49.235,132.893 50.891,132.137 C 52.475,131.345 55.246,131.345 59.063,132.137 L 59.063,132.137 C 61.115,129.833 63.13,128.717 65.254,128.645 C 67.378,128.537 69.322,129.617 71.483,131.741 L 71.483,131.741 C 73.462,129.977 75.479,129.581 77.674,130.553 C 79.87,131.525 83.326,135.161 84.298,137.573 C 85.126,139.949 84.658,142.145 82.75,144.557 L 82.75,144.557 L 126.238,147.257 L 126.238,147.257 C 125.95,143.189 126.67,139.661 128.542,136.385 C 130.307,133.145 131.494,131.417 137.11,127.853 C 142.726,124.181 150.826,119.825 161.95,114.641 L 161.95,114.641 C 162.382,107.729 164.794,103.517 169.33,101.465 C 173.83,99.413 180.202,99.845 188.734,102.617 L 188.734,102.617 C 195.502,98.909 201.334,97.361 206.23,97.577 C 211.123,97.823 214.867,100.055 217.855,104.267 L 217.855,104.267 z M 101.359,153.875 L 126.235,154.271 L 126.991,160.463 L 126.991,160.463 C 123.067,162.911 120.007,165.575 117.667,168.995 C 115.184,172.307 113.779,175.187 113.023,180.263 C 112.267,185.267 112.447,191.387 113.419,198.911 L 113.419,198.911 C 108.883,192.287 105.356,186.203 102.151,180.263 C 99.09,174.287 96.499,168.851 94.771,163.559 L 94.771,163.559 C 97.867,162.515 99.811,161.363 100.999,159.707 C 102.007,158.051 102.26,156.107 101.359,153.875 L 101.359,153.875 z M 93.979,153.875 C 94.735,156.719 94.483,158.663 93.223,159.707 C 91.855,160.679 89.622,160.895 86.239,160.067 L 86.239,160.067 L 83.503,152.687 L 83.503,152.687 C 86.995,153.083 90.487,153.479 93.979,153.875 L 93.979,153.875 z M 36.919,149.987 L 47.396,150.743 L 48.188,155.423 L 44.299,157.763 L 44.299,157.763 C 41.887,157.511 40.123,156.683 38.863,155.423 C 37.603,154.091 36.955,152.327 36.919,149.987 L 36.919,149.987 z M 296.695,285.311 C 297.306,288.335 298.603,290.531 300.583,292.295 C 302.491,294.023 305.083,294.923 308.359,295.391 L 308.359,295.391 L 312.607,300.071 L 312.607,300.071 C 310.735,302.195 310.735,305.04 312.607,308.603 C 314.371,312.204 318.043,316.379 323.479,321.419 L 323.479,321.419 L 307.567,329.194 L 307.567,329.194 C 305.155,323.686 303.174,317.566 301.338,310.15 C 299.503,302.699 297.955,294.599 296.695,285.311 L 296.695,285.311 z "
   style="fill-rule:evenodd;stroke:black;stroke-width:0.036;stroke-miterlimit:10"
   id="path5" />
<path
   d="M 128.611,147.287 C 129.151,142.607 129.727,139.043 130.483,136.595 C 131.13,134.003 131.959,132.707 132.823,132.311 L 132.823,132.311 C 132.968,136.055 133.255,138.719 133.975,140.843 C 134.551,142.859 134.767,144.767 136.71,144.335 C 138.654,143.723 144.595,139.763 145.639,137.747 C 146.538,135.695 143.011,133.931 142.542,132.311 C 141.967,130.583 141.175,129.179 142.542,127.667 C 143.767,126.047 146.214,124.535 150.282,122.591 C 154.35,120.503 159.606,118.091 166.59,115.211 L 166.59,115.211 C 166.122,110.819 166.771,107.543 168.931,105.527 C 170.983,103.475 175.878,102.611 179.046,102.791 C 182.143,102.827 184.986,103.871 187.578,105.923 L 187.578,105.923 C 192.978,103.007 197.982,101.531 202.734,101.639 C 207.378,101.711 212.238,104.051 215.91,106.283 C 219.546,108.299 221.238,108.947 224.478,114.059 C 227.574,119.135 233.333,134.615 234.954,136.199 C 236.466,137.459 233.154,124.427 234.162,122.231 C 235.098,120.071 238.878,121.619 240.786,122.987 C 242.586,124.139 244.134,126.479 245.43,129.611 C 246.726,132.671 248.275,136.811 248.527,141.635 C 248.671,146.531 248.923,152.147 246.222,158.339 C 243.306,164.423 238.195,172.559 231.859,177.743 C 225.451,182.747 215.731,185.951 208.531,188.615 C 201.223,191.243 191.107,193.547 188.731,193.295 C 186.427,192.791 192.439,189.335 194.563,186.671 C 196.579,184.043 196.579,181.667 200.791,177.743 C 204.968,173.639 219.547,163.775 219.403,162.587 C 219.079,161.399 202.771,171.479 199.207,170.759 C 195.571,169.859 199.171,160.859 198.056,157.943 C 196.795,154.991 193.232,152.867 192.224,153.659 C 191.18,154.523 191.9,158.555 191.864,162.983 C 191.612,167.303 194.816,176.159 191.468,179.291 C 187.976,182.279 174.224,178.859 172.028,180.839 C 169.94,182.747 179.732,188.435 178.652,190.559 C 177.32,192.575 169.364,193.223 164.648,192.899 C 159.824,192.503 154.244,191.495 150.68,188.219 C 147.188,184.871 144.812,179.651 143.696,172.703 L 143.696,172.703 C 146.72,173.387 149.384,172.955 151.832,171.551 C 154.208,170.003 157.952,165.143 158.061,164.171 C 158.025,163.163 154.929,165.755 151.832,166.115 C 148.592,166.367 142.652,166.835 139.412,166.115 C 136.137,165.287 134.084,163.307 132.429,161.435 C 130.7,159.419 129.548,157.295 129.116,154.631 L 129.116,154.631 L 135.272,154.703 L 135.272,154.703 C 136.496,156.431 137.755,157.511 139.052,157.547 C 140.383,157.691 142.184,156.791 142.904,155.243 C 143.516,153.443 143.3,149.051 142.544,147.467 C 141.572,145.847 139.088,145.883 137.864,145.919 C 136.64,145.847 135.92,146.387 135.56,147.395 L 135.56,147.395 C 133.255,147.359 130.951,147.323 128.611,147.287 L 128.611,147.287 z "
   style="fill:white;fill-rule:evenodd;stroke:black;stroke-width:0.036;stroke-miterlimit:10"
   id="path7" />
<path
   d="M 188.731,143.579 C 187.363,143.219 184.519,139.151 184.086,135.407 C 183.618,131.591 184.446,125.219 186.03,121.439 C 187.542,117.587 189.918,114.419 193.014,112.907 C 196.074,111.287 199.745,109.919 203.886,112.115 C 207.81,114.239 213.282,121.691 216.701,125.723 C 220.121,129.647 224.477,134.687 224.081,135.407 C 223.541,135.983 215.01,128.459 213.605,129.215 C 212.057,129.971 215.584,135.731 215.153,139.691 C 214.577,143.543 211.949,152.039 210.869,152.111 C 209.861,151.931 210.185,141.131 208.926,139.295 C 207.449,137.387 205.11,141.599 202.337,141.239 C 199.421,140.843 194.129,136.559 191.861,136.991 C 189.56,137.423 189.955,143.687 188.731,143.579 L 188.731,143.579 z "
   style="fill-rule:evenodd;stroke:black;stroke-width:0.036;stroke-miterlimit:10"
   id="path9" />
<path
   d="M 192.619,129.971 C 191.431,128.747 191.18,127.019 191.863,124.931 C 192.511,122.699 194.239,118.487 196.507,117.155 C 198.631,115.787 202.844,115.607 204.68,117.155 C 206.444,118.595 207.163,121.583 206.984,126.119 L 206.984,126.119 C 205.076,124.103 203.528,123.239 202.339,123.383 C 201.079,123.491 200.071,125.111 199.604,126.875 C 198.956,128.639 198.776,131.591 199.208,133.499 C 199.641,135.191 202.952,137.171 202.34,137.351 C 201.477,137.387 196.652,135.479 194.96,134.255 C 193.339,133.031 192.512,131.555 192.619,129.971 L 192.619,129.971 z "
   style="fill:white;fill-rule:evenodd;stroke:black;stroke-width:0.036;stroke-miterlimit:10"
   id="path11" />
<path
   d="M 151.472,141.635 C 151.868,138.071 153.02,135.263 154.532,133.067 C 156.008,130.835 157.916,130.115 160.796,128.423 C 163.712,126.659 167.204,124.715 171.668,122.591 L 171.668,122.591 C 168.5,125.075 165.765,127.271 163.172,129.179 C 160.508,131.015 157.952,131.627 156.332,133.931 C 154.604,136.199 152.876,142.283 153.632,142.859 C 154.317,143.255 157.628,138.431 160.796,136.991 C 163.893,135.479 169.112,134.435 172.424,134.255 C 175.628,134.039 178.221,134.507 180.2,135.803 L 180.2,135.803 C 172.568,135.659 166.88,136.307 162.74,137.747 C 158.636,139.223 157.124,142.715 155.72,144.335 C 154.136,145.847 154.459,146.999 153.776,146.675 C 153.091,146.171 152.228,144.587 151.472,141.635 L 151.472,141.635 z "
   style="fill-rule:evenodd;stroke:black;stroke-width:0.036;stroke-miterlimit:10"
   id="path13" />
<path
   d="M 159.211,145.523 C 161.299,143.327 164.107,142.247 167.636,142.571 C 171.163,142.859 175.304,144.263 180.199,147.071 L 180.199,147.071 C 175.447,142.895 171.451,140.699 167.923,140.483 C 164.359,140.267 161.552,141.815 159.211,145.523 L 159.211,145.523 z "
   style="fill-rule:evenodd;stroke:black;stroke-width:0.036;stroke-miterlimit:10"
   id="path15" />
<path
   d="M 156.512,148.619 C 162.667,147.791 167.455,148.079 171.272,149.771 C 175.087,151.427 177.5,154.235 179.047,158.339 L 179.047,158.339 C 173.863,154.235 169.688,151.427 165.835,149.771 C 162.02,148.079 158.959,147.791 156.512,148.619 L 156.512,148.619 z "
   style="fill-rule:evenodd;stroke:black;stroke-width:0.036;stroke-miterlimit:10"
   id="path17" />
<path
   d="M 136.783,132.419 C 136.567,129.431 135.163,126.119 132.139,122.339 C 129.115,118.559 124.759,114.419 118.927,109.919 L 118.927,109.919 C 124.29,115.463 128.25,120.071 131.347,123.887 C 134.335,127.631 136.1,130.475 136.783,132.419 L 136.783,132.419 z "
   style="fill-rule:evenodd;stroke:black;stroke-width:0.036;stroke-miterlimit:10"
   id="path19" />
<path
   d="M 134.299,134.543 C 132.896,129.827 130.52,126.155 126.883,123.527 C 123.247,120.827 118.495,119.279 112.627,118.739 L 112.627,118.739 C 116.299,119.711 119.791,121.475 123.499,124.175 C 127.063,126.803 130.663,130.259 134.299,134.543 L 134.299,134.543 z "
   style="fill-rule:evenodd;stroke:black;stroke-width:0.036;stroke-miterlimit:10"
   id="path21" />
<path
   d="M 131.6,137.783 C 129.656,133.571 126.883,130.511 123.284,128.603 C 119.612,126.624 115.184,125.795 109.856,126.119 L 109.856,126.119 C 114.824,127.271 118.963,128.783 122.671,130.799 C 126.344,132.779 129.188,135.011 131.6,137.783 L 131.6,137.783 z "
   style="fill-rule:evenodd;stroke:black;stroke-width:0.036;stroke-miterlimit:10"
   id="path23" />
<path
   d="M 130.735,141.383 C 128.431,137.891 125.551,135.695 122.095,134.255 C 118.567,132.887 114.607,132.455 109.927,133.103 L 109.927,133.103 C 113.922,133.967 117.666,135.263 121.158,136.595 C 124.651,137.891 127.747,139.619 130.735,141.383 L 130.735,141.383 z "
   style="fill-rule:evenodd;stroke:black;stroke-width:0.036;stroke-miterlimit:10"
   id="path25" />
<path
   d="M 221.348,105.815 C 222.68,105.239 224.192,102.827 226.028,98.039 C 227.792,93.215 231.284,84.323 232.219,77.483 C 233.083,70.679 228.763,63.947 231.463,57.287 C 234.055,50.483 242.407,43.175 247.772,37.451 C 253.064,31.655 257.276,28.019 262.891,23.087 C 268.328,17.939 273.656,11.099 280.387,7.571 C 287.047,4.079 298.783,2.207 302.528,2.531 C 305.912,2.855 303.931,5.051 301.736,9.515 C 299.431,13.979 293.383,21.935 289.712,28.919 C 286.004,35.723 284.24,42.599 279.992,50.663 C 275.636,58.799 266.492,74.459 264.08,77.087 C 261.668,79.427 266.816,65.495 265.628,65.423 C 264.296,65.423 259.112,71.255 256.304,76.691 C 253.46,81.983 252.344,90.335 248.529,97.283 C 244.569,104.231 239.313,110.855 232.617,117.839 L 232.617,117.839 C 231.14,115.103 229.413,112.907 227.577,110.855 C 225.703,108.767 223.579,107.219 221.348,105.815 L 221.348,105.815 z "
   style="fill:white;fill-rule:evenodd;stroke:black;stroke-width:0.036;stroke-miterlimit:10"
   id="path27" />
<path
   d="M 241.939,119.783 C 244.279,117.191 253.422,115.067 260.191,108.551 C 266.886,101.891 274.231,89.507 281.935,80.579 C 289.495,71.543 297.163,61.751 305.623,54.947 C 314.083,48.107 329.671,40.547 332.407,40.187 C 334.963,39.827 327.511,46.235 321.138,52.607 C 314.55,58.871 301.699,68.735 293.958,77.483 C 286.182,86.231 277.902,98.867 275.346,104.267 C 272.718,109.451 273.187,114.167 278.838,108.551 C 284.598,102.575 300.834,79.859 309.51,70.103 C 317.935,60.455 323.695,58.187 329.706,51.059 C 335.574,43.715 339.822,33.563 345.222,26.975 C 350.55,20.279 358.615,11.855 361.926,11.855 C 365.239,11.927 366.75,17.651 364.662,27.371 C 362.394,36.947 355.662,57.359 348.354,69.311 C 340.902,81.155 331.253,90.263 320.381,98.435 C 309.293,106.499 292.193,112.619 283.085,117.479 C 274.013,122.159 271.097,123.491 266.417,126.767 C 261.665,130.007 257.813,135.875 255.149,136.883 C 252.449,137.675 251.909,134.399 250.468,132.203 C 248.884,129.863 247.66,125.723 246.22,123.671 C 244.675,121.583 239.635,122.231 241.939,119.783 L 241.939,119.783 z "
   style="fill:white;fill-rule:evenodd;stroke:black;stroke-width:0.036;stroke-miterlimit:10"
   id="path29" />
<path
   d="M 332.011,303.959 C 336.188,297.623 340.543,293.663 345.223,291.539 C 349.868,289.414 354.98,289.414 359.984,291.539 C 364.952,293.734 373.16,301.654 374.744,304.318 C 376.112,306.875 372.08,307.846 368.912,306.659 C 365.744,305.327 358.04,297.478 356.096,296.579 C 354.189,295.606 358.328,299.566 357.284,300.827 C 355.988,301.871 351.596,301.763 349.112,303.562 C 346.628,305.398 345.548,309.178 342.524,311.699 C 339.356,314.146 335.431,316.091 330.463,317.927 L 330.463,317.927 C 329.347,315.299 329.095,312.887 329.312,310.547 C 329.527,308.099 330.427,306.083 332.011,303.959 L 332.011,303.959 z "
   style="fill:white;fill-rule:evenodd;stroke:black;stroke-width:0.036;stroke-miterlimit:10"
   id="path31" />
<path
   d="M 260.191,443.135 C 260.335,451.451 259.399,458.183 257.094,463.727 C 254.647,469.091 249.426,471.036 246.582,475.788 C 243.811,480.504 243.738,487.704 240.39,492.096 C 236.863,496.344 229.806,497.496 226.027,501.384 C 222.103,505.236 219.151,509.952 217.855,514.992 C 216.63,519.996 217.351,524.136 218.647,530.903 C 219.835,537.635 221.887,548.723 225.235,554.591 C 228.547,560.207 234.342,562.331 238.447,564.707 C 242.443,566.938 246.115,566.831 249.319,568.559 C 252.451,570.251 257.058,573.707 257.455,575.183 C 257.779,576.551 255.943,577.2 251.659,577.127 L 251.659,577.127 C 246.979,573.095 243.919,570.503 242.335,569.747 C 240.751,568.991 241.219,570.467 242.335,572.087 C 243.343,573.491 248.275,576.803 248.527,578.278 C 248.598,579.682 245.035,581.014 243.09,580.619 C 241.038,580.115 239.166,578.207 236.502,575.579 C 233.658,572.843 227.358,564.635 226.782,564.707 C 226.278,564.743 228.438,568.486 233.406,575.938 L 233.406,575.938 C 232.074,576.838 230.31,576.586 227.969,575.579 C 225.593,574.391 221.634,571.295 219.402,569.35 C 216.954,567.371 214.254,563.014 214.362,563.914 C 214.578,564.742 216.558,568.233 220.59,574.39 L 220.59,574.39 C 216.882,575.363 213.822,574.894 211.267,572.842 C 208.746,570.61 206.983,565.642 205.435,561.97 C 203.67,558.406 202.338,554.914 201.151,551.494 L 201.151,551.494 C 198.739,550.99 197.191,548.613 196.111,544.51 C 195.067,540.226 195.103,532.702 194.959,526.654 C 194.6,520.57 191.972,515.026 194.563,508.762 C 197.191,502.426 206.011,496.414 210.475,489.358 C 214.759,482.302 217.998,469.09 220.59,466.823 C 223.147,464.591 224.586,477.299 226.027,475.787 C 227.359,473.951 227.647,462.323 229.123,456.743 C 230.671,451.091 233.731,442.451 234.955,442.774 C 235.927,443.278 234.091,457.787 235.711,459.083 C 237.403,460.019 242.407,450.623 245.035,449.362 C 247.483,448.031 248.311,452.747 250.867,451.703 C 253.423,450.623 256.483,447.814 260.191,443.135 L 260.191,443.135 z "
   style="fill:white;fill-rule:evenodd;stroke:black;stroke-width:0.036;stroke-miterlimit:10"
   id="path33" />
<path
   d="M 124.651,574.787 L 134.767,567.011 L 134.767,567.011 C 129.367,572.627 126.523,576.119 126.235,577.883 C 125.803,579.503 129.295,578.927 132.823,577.127 C 136.279,575.147 146.107,567.011 147.187,567.011 C 148.159,567.083 145.315,570.539 138.655,577.523 L 138.655,577.523 C 142.219,578.748 145.531,578.819 148.735,577.883 C 151.903,576.767 155.251,573.959 157.663,571.691 C 160.039,569.387 162.091,564.42 162.703,564.708 C 163.136,565.032 159.859,572.268 160.795,573.636 C 161.804,574.788 165.728,573.888 168.535,572.448 C 171.271,571.009 175.375,568.921 177.103,565.068 C 178.723,561.144 177.355,554.592 178.254,549.156 C 179.154,543.541 182.07,535.26 182.143,532.093 C 181.998,528.817 177.75,531.408 177.859,530.149 C 178.075,528.781 182.719,527.305 182.899,524.317 C 182.754,521.113 179.586,514.561 177.859,511.897 C 176.167,509.269 174.763,511.609 172.819,508.765 C 170.731,505.669 168.031,498.937 165.835,494.401 C 163.531,489.794 158.959,481.729 159.607,481.586 C 160.147,481.405 167.455,490.298 169.723,493.25 C 171.954,496.058 173.214,501.241 173.214,498.686 C 173.143,496.058 168.931,478.094 169.326,477.698 C 169.614,477.23 172.71,490.262 175.158,495.95 C 177.606,501.53 180.27,510.747 183.69,511.106 C 186.93,511.251 190.961,501.818 194.958,497.535 C 198.954,493.215 204.246,490.766 207.378,485.474 C 210.259,479.894 210.223,469.274 212.815,465.278 C 215.407,461.354 222.931,464.81 222.895,462.182 C 222.607,459.374 217.962,452.282 212.023,448.97 C 206.155,445.55 196.939,443.534 187.975,442.382 C 178.794,441.194 165.907,441.662 158.059,441.986 C 150.21,442.167 143.803,441.194 141.75,443.93 C 139.662,446.63 146.646,458.078 145.639,458.294 C 144.343,458.33 139.878,446.81 135.162,444.722 C 130.482,442.562 120.114,443.642 118.062,445.874 C 115.902,448.105 121.842,455.162 122.706,458.294 C 123.462,461.281 120.402,460.634 123.102,464.126 C 125.73,467.582 130.914,472.37 138.654,478.886 L 138.654,478.886 C 141.426,486.338 144.738,492.422 149.13,497.534 C 153.414,502.645 158.418,506.389 164.286,509.162 L 164.286,509.162 C 163.927,517.802 162.882,525.83 161.154,533.246 C 159.282,540.662 156.87,548.689 153.774,553.441 C 150.606,558.122 145.961,559.741 142.902,561.217 C 139.842,562.585 137.898,561.037 135.522,561.973 C 133.038,562.873 130.626,564.853 128.142,566.653 C 125.442,568.345 121.518,570.433 120.402,572.09 C 119.394,573.638 121.158,575.438 121.95,575.942 C 122.6,576.406 123.499,575.975 124.651,574.787 L 124.651,574.787 z "
   style="fill:white;fill-rule:evenodd;stroke:black;stroke-width:0.036;stroke-miterlimit:10"
   id="path35" />
<path
   d="M 53.623,144.047 C 53.083,142.823 52.435,140.735 51.283,140.159 C 50.095,139.475 47.287,139.475 46.603,140.159 C 45.847,140.735 45.703,142.427 46.999,143.687 C 48.187,144.839 52.831,147.071 53.983,147.179 C 55.027,147.071 53.983,145.235 53.623,144.047 L 53.623,144.047 z "
   style="fill:white;fill-rule:evenodd;stroke:black;stroke-width:0.036;stroke-miterlimit:10"
   id="path37" />
<path
   d="M 53.228,135.911 C 52.652,134.723 52.148,134.075 52.832,133.571 C 53.48,133.031 55.46,131.951 57.116,132.815 C 58.628,133.643 61.004,135.731 62.156,138.251 C 63.236,140.627 64.208,145.919 63.704,147.179 C 63.02,148.223 59.996,146.459 58.664,145.235 C 57.296,143.939 56.756,141.779 55.929,140.159 C 54.955,138.467 53.731,137.099 53.228,135.911 L 53.228,135.911 z "
   style="fill:white;fill-rule:evenodd;stroke:black;stroke-width:0.036;stroke-miterlimit:10"
   id="path39" />
<path
   d="M 63.703,132.419 C 64.171,131.483 65.18,131.123 66.439,131.627 C 67.483,132.131 69.319,132.779 70.291,135.515 C 71.191,138.107 72.091,145.631 71.875,147.539 C 71.479,149.303 69.607,148.583 68.348,146.783 C 67.016,144.911 64.856,139.043 64.1,136.667 C 63.308,134.146 63.271,133.283 63.703,132.419 L 63.703,132.419 z "
   style="fill:white;fill-rule:evenodd;stroke:black;stroke-width:0.036;stroke-miterlimit:10"
   id="path41" />
<path
   d="M 73.783,133.175 C 74.539,132.923 77.671,133.751 78.859,135.119 C 80.083,136.379 80.875,138.467 80.803,140.555 C 80.586,142.535 78.571,146.783 77.67,147.179 C 76.626,147.503 75.582,144.191 74.971,142.499 C 74.286,140.627 73.891,138.215 73.783,136.667 C 73.423,134.938 72.955,133.499 73.783,133.175 L 73.783,133.175 z "
   style="fill:white;fill-rule:evenodd;stroke:black;stroke-width:0.036;stroke-miterlimit:10"
   id="path43" />
<path
   d="M 126.596,164.243 L 139.052,172.415 L 139.052,172.415 C 140.167,177.887 141.896,182.315 144.091,185.987 C 146.287,189.515 147.007,192.107 152.228,194.159 C 157.412,196.139 166.916,197.579 174.764,198.047 C 182.36,198.443 189.415,198.119 198.452,196.499 C 207.632,194.663 221.097,191.531 229.124,187.535 C 236.9,183.431 240.716,178.571 245.432,172.415 C 250.149,166.223 253.892,159.023 257.096,150.671 L 257.096,150.671 C 261.092,150.419 264.153,150.887 266.42,152.219 C 268.616,153.515 269.948,155.855 270.273,158.411 C 270.56,160.859 269.193,165.143 267.968,166.979 C 266.6,168.671 264.656,169.319 262.136,168.923 L 262.136,168.923 C 263.576,170.255 263.792,171.191 262.928,172.019 C 262.029,172.775 259.905,173.243 256.7,173.567 L 256.7,173.567 C 258.824,176.051 259.652,177.779 259.04,178.607 C 258.428,179.435 256.484,179.435 253.208,178.607 L 253.208,178.607 C 253.676,181.127 253.46,182.675 252.416,183.683 C 251.336,184.583 249.572,184.655 246.98,184.043 L 246.98,184.043 C 247.124,186.275 246.692,187.751 245.828,188.327 C 244.928,188.867 243.452,188.651 241.544,187.535 L 241.544,187.535 C 241.184,190.523 240.464,192.287 239.24,192.971 C 237.908,193.583 236.36,193.115 234.164,191.423 L 234.164,191.423 C 233.264,193.871 232.184,195.383 231.068,196.103 C 229.807,196.787 228.656,196.427 227.179,195.311 L 227.179,195.311 C 226.604,197.543 225.524,199.019 224.083,199.595 C 222.499,200.135 220.699,199.919 218.251,198.803 L 218.251,198.803 C 216.272,201.107 214.507,202.403 212.815,202.691 C 211.015,202.979 209.647,202.151 208.17,200.351 L 208.17,200.351 C 206.946,202.115 205.83,203.123 204.282,203.087 C 202.806,203.123 201.078,202.115 199.242,200.351 L 199.242,200.351 C 197.298,203.699 195.606,205.463 194.166,205.787 C 192.618,206.039 191.322,204.707 190.278,201.935 L 190.278,201.935 C 187.83,203.987 186.03,204.887 184.482,205.031 C 182.97,205.139 181.926,204.095 181.35,202.295 L 181.35,202.295 C 178.938,204.491 176.994,205.535 175.913,205.427 C 174.797,205.283 174.149,203.987 174.365,201.539 L 174.365,201.539 C 170.01,203.267 167.165,203.951 165.437,203.879 C 163.672,203.735 163.42,202.691 164.285,200.747 L 164.285,200.747 C 160.181,202.835 157.589,203.699 156.113,203.483 C 154.601,203.231 154.601,201.755 155.717,199.199 L 155.717,199.199 C 152.009,200.783 149.416,201.431 148.336,201.143 C 147.221,200.783 147.221,199.487 148.732,197.255 L 148.732,197.255 C 144.664,198.263 142.216,198.479 140.992,198.047 C 139.804,197.579 140.056,196.463 141.748,194.555 L 141.748,194.555 C 137.032,196.679 134.009,197.579 132.82,197.255 C 131.596,196.931 132.064,195.383 134.368,192.611 L 134.368,192.611 C 129.58,192.395 126.916,191.783 126.232,191.063 C 125.512,190.271 126.808,189.227 130.12,187.931 L 130.12,187.931 C 125.692,188.039 123.1,188.039 121.948,187.535 C 120.76,187.139 121.408,186.239 123.496,185.231 L 123.496,185.231 C 120.004,184.547 118.06,183.899 117.664,183.287 C 117.16,182.603 118.204,181.955 120.796,181.343 L 120.796,181.343 C 117.7,179.723 116.189,178.607 116.116,177.851 C 116.009,177.059 117.484,176.663 120.4,176.663 L 120.4,176.663 C 119.176,174.035 118.744,172.271 119.248,171.227 C 119.644,170.183 120.977,169.931 123.101,170.471 L 123.101,170.471 C 122.021,168.599 121.769,167.267 122.345,166.187 C 122.923,165.143 124.291,164.495 126.596,164.243 L 126.596,164.243 z "
   style="fill:white;fill-rule:evenodd;stroke:black;stroke-width:0.036;stroke-miterlimit:10"
   id="path45" />
<path
   d="M 114.968,196.103 C 114.392,193.007 114.392,190.631 114.968,189.119 C 115.507,187.463 116.911,185.015 118.064,186.779 C 119.036,188.615 119.936,198.443 121.16,199.595 C 122.312,200.495 123.788,191.783 125.048,192.611 C 126.164,193.331 126.884,203.267 128.181,204.239 C 129.477,205.139 131.313,197.291 132.429,198.047 C 133.401,198.767 132.573,208.235 133.977,208.523 C 135.273,208.703 138.693,198.659 140.205,199.199 C 141.609,199.739 141.321,210.611 142.545,211.259 C 143.625,211.583 146.001,201.395 147.19,201.935 C 148.341,202.403 148.198,214.175 149.53,214.751 C 150.826,215.291 153.562,204.959 154.966,205.427 C 156.154,205.895 156.01,217.307 157.307,217.451 C 158.567,217.415 161.447,205.031 162.743,205.427 C 163.859,205.751 163.031,219.107 164.687,219.395 C 166.415,219.431 170.699,206.687 172.823,206.579 C 174.802,206.615 174.947,219.359 176.711,219.395 C 178.367,219.287 180.707,206.183 182.903,206.183 C 185.027,206.111 187.475,218.531 189.131,218.999 C 190.644,219.251 190.751,208.595 192.228,208.127 C 193.631,207.659 195.9,216.263 197.664,215.903 C 199.356,215.291 200.076,204.815 202.344,205.031 C 204.576,205.175 209.185,217.091 210.876,217.055 C 212.353,216.875 210.3,205.283 211.668,204.635 C 213.072,203.879 217.284,213.527 219.048,213.167 C 220.596,212.591 219.696,202.763 221.353,202.295 C 222.973,201.935 227.004,211.223 228.732,210.863 C 230.317,210.251 231.144,206.507 231.073,199.199 L 231.073,199.199 C 232.224,203.735 233.268,207.443 233.808,210.467 C 234.348,213.455 236.22,217.091 234.564,217.055 C 232.728,216.767 225.457,208.487 223.296,209.315 C 221.244,210.215 222.72,221.051 221.748,222.095 C 220.524,222.851 217.608,214.247 216.312,214.751 C 215.087,215.291 215.7,224.939 213.972,225.227 C 211.992,225.263 206.879,215.363 205.043,215.507 C 203.135,215.723 204.755,225.371 203.1,225.983 C 201.299,226.235 197.16,217.559 194.963,217.847 C 192.732,218.207 192.047,227.855 190.283,227.927 C 188.555,227.747 187.043,217.451 184.487,217.451 C 181.643,217.451 176.603,227.747 174.371,227.927 C 172.247,227.963 173.147,218.171 171.671,217.847 C 169.98,217.379 166.451,225.659 164.688,225.623 C 162.996,225.479 162.744,217.667 161.16,217.451 C 159.288,217.199 155.292,224.075 154.176,224.039 C 152.988,223.787 155.292,217.307 154.572,216.659 C 153.744,215.975 151.728,221.159 149.927,220.547 C 148.163,219.827 145.572,212.987 144.095,212.807 C 142.547,212.663 141.432,219.719 140.604,219.395 C 139.667,218.819 139.812,211.223 138.66,210.071 C 137.364,209.027 134.484,213.131 133.224,212.807 C 131.927,212.267 132.072,208.235 130.883,207.371 C 129.551,206.435 127.787,206.687 125.447,207.731 L 125.447,207.731 C 123.503,207.011 121.739,205.859 120.01,203.879 C 118.207,201.899 116.623,199.307 114.968,196.103 L 114.968,196.103 z "
   style="fill:white;fill-rule:evenodd;stroke:black;stroke-width:0.036;stroke-miterlimit:10"
   id="path47" />
<path
   d="M 245.431,195.311 C 244.604,193.223 244.82,192.107 246.223,191.819 C 247.627,191.531 252.488,194.591 253.604,193.763 C 254.467,192.683 250.616,187.211 252.055,186.383 C 253.459,185.555 260.803,189.983 262.135,189.119 C 263.323,188.147 259.112,181.811 259.795,180.947 C 260.48,180.047 265.555,184.655 266.419,183.683 C 267.175,182.567 264.475,176.015 264.835,174.719 C 265.123,173.351 267.715,177.311 268.723,175.907 C 269.66,174.467 270.307,171.227 270.667,166.187 L 270.667,166.187 C 271.315,169.535 271.711,172.811 271.855,176.303 C 271.962,179.723 272.43,184.979 271.459,186.779 C 270.307,188.471 266.887,185.375 265.627,186.383 C 264.331,187.211 265.483,191.603 264.079,192.215 C 262.531,192.719 257.671,188.651 256.699,189.875 C 255.726,191.099 256.195,194.339 258.247,199.595 L 258.247,199.595 C 255.726,199.235 253.351,198.767 251.263,198.047 C 249.031,197.291 247.231,196.427 245.431,195.311 L 245.431,195.311 z "
   style="fill:white;fill-rule:evenodd;stroke:black;stroke-width:0.036;stroke-miterlimit:10"
   id="path49" />
<path
   d="M 263.683,201.935 C 260.875,202.655 257.383,202.655 253.207,201.935 C 248.815,201.071 241.579,197.759 238.447,197.255 C 235.423,196.679 234.631,195.527 234.955,198.803 C 235.135,202.079 238.627,211.079 239.599,216.659 C 240.427,222.095 239.347,228.683 240.391,231.419 C 241.328,234.047 241.94,234.587 245.828,232.211 C 249.716,229.655 255.62,224.615 263.683,216.659 L 263.683,216.659 C 255.043,221.483 249.356,224.255 246.62,224.831 C 243.812,225.371 243.704,222.203 246.98,220.187 C 250.292,218.027 262.099,214.823 266.024,212.807 C 269.696,210.827 269.839,210.323 269.515,208.523 C 269.119,206.687 267.175,204.491 263.683,201.935 L 263.683,201.935 z "
   style="fill:white;fill-rule:evenodd;stroke:black;stroke-width:0.036;stroke-miterlimit:10"
   id="path51" />
<path
   d="M 260.191,207.371 C 259.543,206.831 254.214,206.291 250.867,206.183 C 247.339,205.967 241.579,206.003 240.39,206.579 C 239.275,207.119 242.514,209.171 244.279,209.675 C 245.935,210.071 248.779,209.351 250.47,209.315 C 252.09,209.171 252.235,209.135 253.962,208.919 C 255.583,208.559 260.623,207.767 260.191,207.371 L 260.191,207.371 z "
   style="fill-rule:evenodd;stroke:black;stroke-width:0.036;stroke-miterlimit:10"
   id="path53" />
<path
   d="M 264.835,199.991 C 264.043,198.047 264.619,195.059 266.419,193.367 C 268.111,191.603 272.071,189.659 274.951,189.875 C 277.687,190.019 280.927,192.647 282.726,194.555 C 284.382,196.463 285.93,198.659 285.031,201.143 C 283.987,203.483 279.199,207.839 276.895,208.523 C 274.483,208.991 273.042,206.075 271.063,204.635 C 268.903,203.159 265.663,201.791 264.835,199.991 L 264.835,199.991 z "
   style="fill:white;fill-rule:evenodd;stroke:black;stroke-width:0.036;stroke-miterlimit:10"
   id="path55" />
<path
   d="M 283.087,190.271 C 283.051,190.055 283.699,188.507 285.031,185.627 C 286.363,182.531 289.279,176.411 290.863,172.811 C 292.195,169.211 292.411,165.287 293.598,164.639 C 294.678,163.991 296.082,166.295 298.243,168.923 C 300.403,171.443 303.247,176.915 306.775,179.795 C 310.231,182.567 316.567,183.539 318.835,185.627 C 320.887,187.571 321.319,190.559 319.591,191.819 C 317.827,192.935 312.931,191.279 308.36,192.971 C 303.536,194.627 295.004,200.855 291.656,201.935 C 288.343,202.871 287.48,201.827 288.92,198.803 L 288.92,198.803 C 295.616,195.095 299.324,192.503 300.189,191.423 C 300.945,190.235 294.932,192.539 293.96,191.819 C 292.88,190.883 295.328,186.563 294.356,186.779 C 293.24,187.139 290.108,193.079 288.164,193.763 C 286.183,194.303 284.635,193.187 283.087,190.271 L 283.087,190.271 z "
   style="fill:white;fill-rule:evenodd;stroke:black;stroke-width:0.036;stroke-miterlimit:10"
   id="path57" />
<path
   d="M 283.087,209.315 C 288.703,206.183 295.436,204.419 303.679,203.879 C 311.887,203.267 321.211,204.167 332.047,206.183 L 332.047,206.183 C 325.207,207.119 319.375,209.531 314.551,213.563 C 309.619,217.595 305.875,223.067 302.923,230.267 L 302.923,230.267 C 298.783,226.163 294.86,222.671 290.863,219.791 C 286.867,216.803 280.495,214.571 279.235,212.807 C 277.975,211.043 279.127,209.927 283.087,209.315 L 283.087,209.315 z "
   style="fill:white;fill-rule:evenodd;stroke:black;stroke-width:0.036;stroke-miterlimit:10"
   id="path59" />
<path
   d="M 272.215,213.167 C 274.087,218.567 275.203,224.435 276.104,231.059 C 276.896,237.683 277.255,245.963 276.896,252.407 C 276.427,258.743 275.312,263.999 273.404,268.715 L 273.404,268.715 C 270.02,261.299 265.232,256.115 258.643,253.163 C 252.02,250.211 243.992,249.347 234.164,250.859 L 234.164,250.859 C 237.368,244.271 240.176,239.915 242.732,237.647 C 245.288,235.343 247.484,237.107 249.32,237.251 C 251.011,237.359 250.508,240.347 252.812,238.439 C 255.007,236.279 259.219,229.511 262.532,225.227 C 265.807,221.015 268.903,216.947 272.215,213.167 L 272.215,213.167 z "
   style="fill:white;fill-rule:evenodd;stroke:black;stroke-width:0.036;stroke-miterlimit:10"
   id="path61" />
<path
   d="M 50.888,158.051 C 52.688,158.699 56.18,159.167 61.364,159.599 C 66.584,159.923 73.352,160.175 81.956,160.355 L 81.956,160.355 C 84.908,162.911 86.852,166.223 87.788,170.867 C 88.652,175.475 88.328,180.515 87.392,187.535 C 86.312,194.483 83.108,204.815 81.955,212.015 C 80.767,219.035 80.299,222.167 80.407,229.871 C 80.407,237.539 80.875,246.719 81.955,257.843 L 81.955,257.843 C 76.087,253.415 70.184,249.995 64.1,247.727 C 57.908,245.279 51.968,243.803 45.452,243.875 C 38.828,243.875 32.096,245.387 24.86,248.123 L 24.86,248.123 C 22.232,242.219 22.16,233.723 24.5,222.095 C 26.84,210.287 34.364,189.407 38.864,178.607 C 43.291,167.807 47.251,161.146 50.888,158.051 L 50.888,158.051 z "
   style="fill:white;fill-rule:evenodd;stroke:black;stroke-width:0.036;stroke-miterlimit:10"
   id="path63" />
<path
   d="M 53.623,234.911 C 47.935,221.087 44.263,209.891 42.751,200.747 C 41.203,191.567 42.787,185.627 44.299,180.551 C 45.703,175.403 48.403,170.291 51.283,170.075 C 54.127,169.715 57.439,172.559 61.363,178.607 L 61.363,178.607 C 65.935,174.143 69.823,172.127 73.027,172.415 C 76.159,172.595 80.047,175.367 80.407,180.191 C 80.695,185.051 79.399,191.855 74.971,201.143 C 70.436,210.395 63.415,221.375 53.623,234.911 L 53.623,234.911 z "
   style="fill-rule:evenodd;stroke:black;stroke-width:0.036;stroke-miterlimit:10"
   id="path65" />
<path
   d="M 53.623,230.663 C 49.304,217.559 46.495,207.299 45.055,199.199 C 43.615,191.135 43.795,186.959 45.055,182.495 C 46.171,177.887 49.375,171.983 52.039,172.019 C 54.667,171.983 57.476,175.475 60.607,182.495 L 60.607,182.495 C 66.583,176.951 70.831,174.287 73.783,174.359 C 76.519,174.467 77.636,178.787 77.671,182.891 C 77.743,186.779 78.067,190.019 74.18,198.047 C 70.111,206.147 63.308,216.695 53.623,230.663 L 53.623,230.663 z "
   style="fill:white;fill-rule:evenodd;stroke:black;stroke-width:0.036;stroke-miterlimit:10"
   id="path67" />
<path
   d="M 50.491,149.879 L 51.679,155.711 L 51.679,155.711 C 54.414,157.043 56.79,157.691 58.662,157.655 C 60.606,157.547 63.27,156.251 62.91,155.315 C 62.334,154.307 57.618,152.687 55.566,151.823 C 53.479,150.887 51.787,150.239 50.491,149.879 L 50.491,149.879 z "
   style="fill:white;fill-rule:evenodd;stroke:black;stroke-width:0.036;stroke-miterlimit:10"
   id="path69" />
<path
   d="M 80.012,149.483 L 81.163,156.863 L 81.163,156.863 C 76.556,158.159 73.676,158.555 72.235,158.051 C 70.795,157.475 72.271,155.351 72.631,153.767 C 72.919,152.111 72.883,149.411 74.18,148.727 C 75.403,147.971 77.348,148.223 80.012,149.483 L 80.012,149.483 z "
   style="fill:white;fill-rule:evenodd;stroke:black;stroke-width:0.036;stroke-miterlimit:10"
   id="path71" />
<path
   d="M 136.315,149.483 C 135.199,149.231 130.411,148.979 121.411,148.439 C 112.375,147.899 99.667,147.215 82.747,146.387 L 82.747,146.387 C 81.991,146.963 81.775,147.683 81.811,148.547 C 81.811,149.375 82.351,150.239 83.143,151.283 L 83.143,151.283 C 87.895,151.859 94.519,152.435 103.411,152.615 C 112.267,152.795 122.959,152.795 135.919,152.615 L 135.919,152.615 C 136.747,153.767 137.791,154.415 138.655,154.559 C 139.519,154.667 141.067,154.451 141.355,153.371 C 141.535,152.147 140.563,148.115 139.807,147.539 C 139.016,146.854 137.72,147.503 136.315,149.483 L 136.315,149.483 z "
   style="fill:white;fill-rule:evenodd;stroke:black;stroke-width:0.036;stroke-miterlimit:10"
   id="path73" />
<path
   d="M 95.419,153.659 C 96.283,155.243 96.571,156.647 96.283,157.871 C 95.923,159.095 95.131,159.923 93.619,160.751 L 93.619,160.751 L 94.844,162.623 L 94.844,162.623 C 97.075,161.686 98.587,160.463 99.524,159.095 C 100.423,157.691 100.604,155.999 100.208,154.163 L 100.208,154.163 C 98.623,154.019 97.039,153.839 95.419,153.659 L 95.419,153.659 z "
   style="fill:white;fill-rule:evenodd;stroke:black;stroke-width:0.036;stroke-miterlimit:10"
   id="path75" />
<path
   d="M 5.419,132.635 C 6.931,134.687 9.631,136.559 13.231,138.251 C 16.903,139.871 21.979,141.347 27.199,142.535 C 32.311,143.651 37.675,144.479 43.687,145.019 L 43.687,145.019 C 46.387,145.847 48.115,146.639 48.728,147.395 C 49.304,148.079 48.908,148.871 47.396,149.483 L 47.396,149.483 L 36.235,148.799 L 36.235,148.799 C 35.767,150.599 35.839,152.003 36.055,153.299 C 36.163,154.415 36.595,155.351 37.783,156.251 C 39.079,157.115 40.843,157.907 43.471,158.627 L 43.471,158.627 L 40.627,160.715 L 40.627,160.715 C 37.603,160.103 35.371,158.807 34.075,156.827 C 32.671,154.775 32.203,152.147 32.527,148.799 L 32.527,148.799 C 28.855,147.287 25.615,146.711 22.267,147.215 C 18.847,147.611 15.679,149.519 12.763,151.571 C 9.811,153.587 7.147,156.215 4.771,159.455 L 4.771,159.455 C 4.483,154.235 4.339,149.555 4.483,145.019 C 4.555,140.483 4.915,136.487 5.419,132.635 L 5.419,132.635 z "
   style="fill:white;fill-rule:evenodd;stroke:black;stroke-width:0.036;stroke-miterlimit:10"
   id="path77" />
<path
   d="M 42.751,163.091 C 36.019,169.679 29.935,176.915 24.103,185.231 C 18.307,193.511 11.107,205.535 8.191,212.411 C 5.095,219.179 4.267,222.707 6.247,225.623 C 8.227,228.323 12.835,229.619 20.215,229.115 L 20.215,229.115 C 24.967,210.971 29.287,196.751 33.031,185.627 C 36.847,174.539 39.907,167.123 42.751,163.091 L 42.751,163.091 z "
   style="fill:white;fill-rule:evenodd;stroke:black;stroke-width:0.036;stroke-miterlimit:10"
   id="path79" />
<path
   d="M 87.787,163.091 L 92.432,162.299 L 92.432,162.299 C 92.503,165.935 94.016,170.939 97.112,177.455 C 100.1,183.971 107.12,194.087 110.684,201.143 C 114.211,208.163 116.623,213.887 118.064,218.999 L 118.064,218.999 C 106.76,223.895 98.624,228.071 92.828,231.815 C 87.14,235.487 84.116,238.547 83.9,241.139 L 83.9,241.139 C 83.036,232.175 83.072,222.923 84.296,212.807 C 85.448,202.547 90.236,189.335 90.884,180.947 C 91.388,172.595 90.487,166.691 87.787,163.091 L 87.787,163.091 z "
   style="fill:white;fill-rule:evenodd;stroke:black;stroke-width:0.036;stroke-miterlimit:10"
   id="path81" />
<path
   d="M 253.207,255.683 C 252.415,257.051 252.667,260.507 253.963,266.195 C 255.259,271.955 257.599,279.443 260.984,289.487 L 260.984,289.487 C 269.551,287.291 278.12,284.015 287.372,279.371 C 296.516,274.763 306.884,269.399 315.704,261.911 C 324.38,254.243 332.227,245.063 339.392,233.939 L 339.392,233.939 L 314.949,218.819 L 314.949,218.819 C 311.673,221.951 309.081,224.975 307.173,227.747 C 305.194,230.591 303.898,233.003 303.285,235.523 L 303.285,235.523 C 302.025,233.399 299.181,230.591 294.753,226.955 C 290.253,223.283 284.169,218.891 276.501,213.779 L 276.501,213.779 C 279.093,221.123 280.209,229.691 279.993,239.771 C 279.741,249.887 278.013,261.084 274.953,273.935 L 274.953,273.935 C 271.245,267.923 267.753,263.351 264.081,260.363 C 260.371,257.267 256.879,255.755 253.207,255.683 L 253.207,255.683 z "
   style="fill:white;fill-rule:evenodd;stroke:black;stroke-width:0.036;stroke-miterlimit:10"
   id="path83" />
<path
   d="M 103.304,232.391 L 127.783,218.027 L 127.783,218.027 C 137.468,222.779 147.151,226.127 157.663,228.503 C 168.14,230.699 176.491,232.571 189.919,231.635 C 203.167,230.591 218.684,227.711 236.899,222.707 L 236.899,222.707 C 235.459,226.883 234.811,230.015 235.35,232.391 C 235.819,234.659 237.187,236.135 239.598,236.675 L 239.598,236.675 L 228.727,255.323 L 228.726,255.323 C 232.974,253.991 236.863,253.343 240.39,253.379 C 243.918,253.343 246.979,253.991 249.714,255.323 L 249.714,255.323 C 249.678,261.695 250.506,267.851 252.054,274.223 C 253.567,280.523 255.943,286.643 259.038,292.871 L 259.038,292.871 L 271.854,290.171 L 271.854,290.171 C 274.698,302.267 277.362,312.311 279.99,320.843 C 282.582,329.267 284.994,335.819 287.37,340.643 L 287.37,340.643 C 280.71,344.963 275.022,349.319 269.91,353.855 C 264.798,358.355 259.038,361.164 257.094,367.427 C 255.151,373.547 253.782,382.007 258.246,390.719 C 262.746,399.359 270.882,408.683 283.482,419.087 L 283.482,419.087 L 307.17,402.778 L 307.17,402.778 C 310.122,406.415 312.066,410.123 313.002,414.047 C 313.939,417.935 313.758,421.895 312.606,426.07 L 312.606,426.07 C 298.889,430.499 286.398,432.694 274.553,432.659 C 262.673,432.478 256.194,425.243 241.938,425.675 C 227.429,426.143 205.29,434.891 189.125,435.395 C 172.89,435.611 157.518,429.492 145.638,428.015 C 133.686,426.575 129.762,429.707 118.457,426.864 C 107.01,423.767 91.926,415.775 78.065,410.519 C 64.097,405.263 43.181,401.231 35.729,395.795 C 28.241,390.358 30.509,387.731 33.785,377.902 C 37.061,367.822 47.43,350.506 55.169,336.358 C 62.873,322.102 72.27,307.451 79.613,293.663 C 86.885,279.767 94.121,264.791 98.261,254.423 C 102.26,244.091 103.808,236.891 103.304,232.391 L 103.304,232.391 z "
   style="fill:white;fill-rule:evenodd;stroke:black;stroke-width:0.036;stroke-miterlimit:10"
   id="path85" />
<path
   d="M 124.291,304.031 C 117.199,296.255 112.411,287.074 109.928,276.094 C 107.371,264.898 105.535,246.034 109.136,238.402 C 112.699,230.806 126.236,229.834 131.276,231.022 C 136.208,232.174 138.62,236.926 138.656,245.422 L 138.656,245.422 C 146.252,239.014 152.588,235.954 157.664,235.702 C 162.632,235.45 168.608,237.142 168.933,244.234 C 169.149,251.362 166.664,267.454 159.248,277.642 C 151.724,287.615 140.203,296.362 124.291,304.031 L 124.291,304.031 z "
   style="fill-rule:evenodd;stroke:black;stroke-width:0.036;stroke-miterlimit:10"
   id="path87" />
<path
   d="M 124.688,299.387 C 119.251,294.275 115.76,287.255 113.78,277.643 C 111.764,267.995 110.54,249.635 113.024,242.291 C 115.544,234.875 124.472,232.211 128.54,233.759 C 132.536,235.307 135.164,241.211 136.712,251.615 L 136.712,251.615 C 145.028,244.487 151.761,240.347 156.908,239.195 C 161.984,237.971 167.42,238.583 167.384,244.631 C 167.24,250.715 163.208,265.979 156.116,275.303 C 148.915,284.483 138.583,292.367 124.688,299.387 L 124.688,299.387 z "
   style="fill:white;fill-rule:evenodd;stroke:black;stroke-width:0.036;stroke-miterlimit:10"
   id="path89" />
<path
   d="M 176.312,239.591 C 174.188,255.143 172.604,268.355 171.272,280.343 C 169.904,292.187 169.04,301.979 168.536,310.259 L 168.536,310.259 C 170.876,295.751 172.64,282.899 173.973,271.019 C 175.231,259.103 176.06,248.807 176.312,239.591 L 176.312,239.591 z "
   style="fill-rule:evenodd;stroke:black;stroke-width:0.036;stroke-miterlimit:10"
   id="path91" />
<path
   d="M 180.955,239.195 C 178.831,254.711 177.247,268.031 175.915,279.983 C 174.619,291.862 173.72,301.547 173.215,309.862 L 173.215,309.862 C 175.556,295.318 177.319,282.574 178.652,270.658 C 179.947,258.743 180.667,248.483 180.955,239.195 L 180.955,239.195 z "
   style="fill-rule:evenodd;stroke:black;stroke-width:0.036;stroke-miterlimit:10"
   id="path93" />
<path
   d="M 170.119,324.623 C 168.031,347.015 166.339,366.383 165.043,383.555 C 163.747,400.619 162.848,414.875 162.344,426.755 L 162.344,426.755 C 164.684,405.839 166.448,387.227 167.78,370.091 C 169.039,352.955 169.867,337.979 170.119,324.623 L 170.119,324.623 z "
   style="fill-rule:evenodd;stroke:black;stroke-width:0.036;stroke-miterlimit:10"
   id="path95" />
<path
   d="M 165.835,321.923 C 163.711,344.351 162.127,363.611 160.795,380.819 C 159.428,397.883 158.564,412.139 158.06,424.019 L 158.06,424.019 C 160.4,403.103 162.164,384.492 163.496,367.355 C 164.755,350.183 165.583,335.314 165.835,321.923 L 165.835,321.923 z "
   style="fill-rule:evenodd;stroke:black;stroke-width:0.036;stroke-miterlimit:10"
   id="path97" />
<path
   d="M 84.295,304.427 C 100.675,304.319 115.76,305.147 130.123,306.767 C 144.487,308.387 157.411,310.799 169.724,314.147 L 169.724,314.147 C 145.244,311.339 126.236,309.179 111.871,307.523 C 97.579,305.831 88.436,304.895 84.295,304.427 L 84.295,304.427 z "
   style="fill-rule:evenodd;stroke:black;stroke-width:0.036;stroke-miterlimit:10"
   id="path99" />
<path
   d="M 173.972,312.959 C 190.352,312.851 205.436,313.679 219.799,315.299 C 234.163,316.919 247.087,319.331 259.4,322.679 L 259.4,322.679 C 234.92,319.871 215.912,317.675 201.547,316.091 C 187.255,314.435 178.111,313.391 173.972,312.959 L 173.972,312.959 z "
   style="fill-rule:evenodd;stroke:black;stroke-width:0.036;stroke-miterlimit:10"
   id="path101" />
<path
   d="M 173.972,317.639 C 190.352,317.532 205.436,318.359 219.799,319.979 C 234.163,321.599 247.087,324.011 259.4,327.359 L 259.4,327.359 C 234.92,324.551 215.912,322.391 201.547,320.735 C 187.255,319.043 178.111,318.106 173.972,317.639 L 173.972,317.639 z "
   style="fill-rule:evenodd;stroke:black;stroke-width:0.036;stroke-miterlimit:10"
   id="path103" />
<path
   d="M 191.863,308.314 C 185.851,300.754 182.179,294.382 180.991,288.91 C 179.803,283.402 181.747,277.282 184.483,275.698 C 187.075,274.078 191.035,275.194 196.506,279.19 L 196.506,279.19 C 199.387,275.806 202.231,274.474 205.038,274.906 C 207.81,275.338 212.526,278.506 213.21,281.89 C 213.858,285.238 212.382,290.206 208.927,294.706 C 205.255,299.171 199.747,303.526 191.863,308.314 L 191.863,308.314 z "
   style="fill-rule:evenodd;stroke:black;stroke-width:0.036;stroke-miterlimit:10"
   id="path105" />
<path
   d="M 192.476,305.219 C 187.543,298.991 184.591,293.843 183.62,289.379 C 182.648,284.915 184.196,279.947 186.464,278.651 C 188.624,277.247 191.756,278.327 196.292,281.495 L 196.292,281.495 C 198.597,278.759 201.008,277.643 203.24,278.003 C 205.472,278.255 209.252,281.027 209.864,283.691 C 210.368,286.391 209.216,290.423 206.408,294.131 C 203.419,297.767 198.919,301.331 192.476,305.219 L 192.476,305.219 z "
   style="fill:white;fill-rule:evenodd;stroke:black;stroke-width:0.036;stroke-miterlimit:10"
   id="path107" />
<path
   d="M 100.207,376.283 C 94.195,368.65 90.523,362.314 89.335,356.843 C 88.147,351.299 90.091,345.287 92.827,343.667 C 95.419,342.047 99.379,343.163 104.851,347.159 L 104.851,347.159 C 107.803,343.774 110.611,342.442 113.418,342.875 C 116.227,343.307 120.834,346.475 121.555,349.858 C 122.166,353.207 120.798,358.174 117.307,362.674 C 113.707,367.139 108.056,371.495 100.207,376.283 L 100.207,376.283 z "
   style="fill-rule:evenodd;stroke:black;stroke-width:0.036;stroke-miterlimit:10"
   id="path109" />
<path
   d="M 137.107,351.407 C 131.095,343.846 127.422,337.474 126.235,332.003 C 125.047,326.495 126.991,320.375 129.727,318.791 C 132.319,317.171 136.279,318.287 141.75,322.283 L 141.75,322.283 C 144.63,318.97 147.475,317.602 150.282,318.035 C 153.054,318.467 157.77,321.635 158.454,325.018 C 159.102,328.367 157.626,333.334 154.17,337.834 C 150.499,342.299 144.991,346.69 137.107,351.407 L 137.107,351.407 z "
   style="fill-rule:evenodd;stroke:black;stroke-width:0.036;stroke-miterlimit:10"
   id="path111" />
<path
   d="M 137.72,348.311 C 132.787,342.155 129.835,336.935 128.864,332.507 C 127.892,327.971 129.44,323.039 131.708,321.743 C 133.868,320.339 137,321.419 141.536,324.587 L 141.536,324.587 C 143.84,321.887 146.252,320.734 148.484,321.131 C 150.715,321.491 154.496,324.083 155.108,326.819 C 155.612,329.519 154.46,333.551 151.652,337.259 C 148.663,340.858 144.163,344.495 137.72,348.311 L 137.72,348.311 z "
   style="fill:white;fill-rule:evenodd;stroke:black;stroke-width:0.036;stroke-miterlimit:10"
   id="path113" />
<path
   d="M 127.388,411.599 C 121.375,404.039 117.703,397.667 116.516,392.195 C 115.328,386.687 117.272,380.567 120.007,378.983 C 122.6,377.363 126.56,378.479 132.031,382.475 L 132.031,382.475 C 134.983,379.163 137.791,377.795 140.599,378.227 C 143.407,378.66 148.015,381.828 148.735,385.211 C 149.347,388.559 147.979,393.526 144.487,398.026 C 140.888,402.491 135.235,406.883 127.388,411.599 L 127.388,411.599 z "
   style="fill-rule:evenodd;stroke:black;stroke-width:0.036;stroke-miterlimit:10"
   id="path115" />
<path
   d="M 128.035,408.503 C 123.103,402.347 120.151,397.127 119.18,392.699 C 118.207,388.163 119.755,383.23 122.024,381.934 C 124.076,380.531 127.388,381.61 131.816,384.778 L 131.816,384.778 C 134.156,382.043 136.423,380.926 138.764,381.287 C 141.068,381.646 144.812,384.203 145.423,387.011 C 145.928,389.747 144.812,393.671 141.932,397.415 C 138.943,401.051 134.443,404.615 128.035,408.503 L 128.035,408.503 z "
   style="fill:white;fill-rule:evenodd;stroke:black;stroke-width:0.036;stroke-miterlimit:10"
   id="path117" />
<path
   d="M 76.663,343.667 C 73.603,336.539 72.235,331.066 72.415,326.566 C 72.631,322.102 75.403,317.89 77.815,317.243 C 80.119,316.522 82.891,318.287 86.275,322.39 L 86.275,322.39 C 89.227,320.482 91.567,319.942 93.691,320.914 C 95.743,321.886 98.587,325.162 98.479,327.97 C 98.263,330.706 96.103,334.09 92.539,336.862 C 88.795,339.526 83.647,341.65 76.663,343.667 L 76.663,343.667 z "
   style="fill-rule:evenodd;stroke:black;stroke-width:0.036;stroke-miterlimit:10"
   id="path119" />
<path
   d="M 54.127,389.099 C 51.14,381.971 49.591,376.499 49.879,371.999 C 50.06,367.535 52.94,363.322 55.316,362.675 C 57.62,361.955 60.392,363.719 63.776,367.822 L 63.776,367.822 C 66.584,365.915 69.176,365.375 71.156,366.346 C 73.1,367.318 76.124,370.594 75.944,373.402 C 75.728,376.138 73.568,379.522 70.004,382.295 C 66.26,384.959 61.111,387.083 54.127,389.099 L 54.127,389.099 z "
   style="fill-rule:evenodd;stroke:black;stroke-width:0.036;stroke-miterlimit:10"
   id="path121" />
<path
   d="M 185.239,230.267 L 206.623,228.323 L 206.623,228.323 C 208.207,235.415 208.459,240.887 207.379,245.423 C 206.264,249.779 203.852,252.875 199.999,254.711 L 199.999,254.711 C 195.463,251.435 191.972,247.943 189.523,243.839 C 187.003,239.663 185.671,235.271 185.239,230.267 L 185.239,230.267 z "
   style="fill-rule:evenodd;stroke:black;stroke-width:0.036;stroke-miterlimit:10"
   id="path123" />
<path
   d="M 259.399,286.571 C 256.338,283.511 253.495,281.963 250.47,281.531 C 247.374,281.099 243.054,281.351 241.542,284.231 C 239.886,287.075 239.418,292.979 241.542,298.199 C 243.63,303.238 247.95,308.638 254.358,314.543 L 254.358,314.543 C 257.022,314.11 259.434,311.771 261.738,307.522 C 263.969,303.203 266.093,297.046 267.966,288.91 L 267.966,288.91 L 260.586,291.214 L 260.586,291.214 C 260.191,289.667 259.795,288.119 259.399,286.571 L 259.399,286.571 z "
   style="fill-rule:evenodd;stroke:black;stroke-width:0.036;stroke-miterlimit:10"
   id="path125" />
<path
   d="M 271.063,353.747 C 271.89,351.011 271.207,348.383 268.722,345.575 C 266.166,342.659 260.91,338.339 256.302,337.043 C 251.622,335.675 245.107,335.566 241.182,337.835 C 237.187,340.139 234.378,344.314 232.615,350.65 L 232.615,350.65 C 225.379,340.499 218.791,334.846 212.419,333.55 C 205.903,332.254 197.407,336.286 194.564,342.874 C 191.684,349.39 188.732,360.01 195.715,372.394 C 202.808,384.778 216.127,399.035 236.503,416.278 L 236.503,416.278 C 242.587,412.318 247.772,408.43 252.055,404.615 C 256.303,400.726 259.616,397.018 262.135,393.346 L 262.135,393.346 C 258.896,388.991 257.131,384.634 256.699,380.134 C 256.123,375.49 257.023,371.062 259.399,366.562 C 261.847,362.099 265.591,357.959 271.063,353.747 L 271.063,353.747 z "
   style="fill-rule:evenodd;stroke:black;stroke-width:0.036;stroke-miterlimit:10"
   id="path127" />
<path
   d="M 331.651,375.131 C 331.003,374.375 327.006,377.327 319.123,384.275 C 311.131,391.223 299.935,401.735 284.707,416.351 L 284.707,416.351 C 276.715,410.843 270.775,405.767 266.455,400.583 C 262.135,395.291 260.515,389.818 259.111,385.535 C 257.527,381.251 257.275,378.623 257.671,375.131 C 258.067,371.423 259.255,367.247 261.631,364.402 C 263.9,361.415 268.003,358.211 271.459,358.283 C 274.843,358.427 278.443,361.738 281.863,365.447 C 285.103,369.01 290.539,374.77 291.367,379.81 C 292.051,384.743 289.098,392.086 286.687,395.039 C 284.203,397.883 280.567,397.919 277.039,396.803 C 273.367,395.471 267.751,391.691 265.735,387.695 C 263.755,383.664 264.943,376.103 265.554,372.792 C 266.13,369.3 267.283,367.5 269.298,367.248 C 271.134,366.924 274.735,368.939 277.182,371.208 C 279.487,373.439 283.266,376.859 283.662,380.352 C 283.914,383.808 281.502,390.468 279.342,391.44 C 277.111,392.125 272.286,387.516 270.558,384.997 C 268.722,382.44 268.327,377.725 268.794,376.393 C 269.226,375.097 271.926,375.421 273.439,376.933 C 274.842,378.229 277.218,383.989 277.363,384.637 C 277.291,385.177 274.771,380.749 273.979,380.677 C 273.222,380.605 272.323,382.656 273.079,383.917 C 273.799,384.925 277.327,387.913 278.263,387.337 C 278.984,386.725 278.911,382.692 277.904,380.497 C 276.679,378.192 273.944,374.484 272.179,373.692 C 270.451,372.756 268.507,373.764 267.896,375.312 C 267.175,376.752 267.104,379.848 268.255,382.656 C 269.371,385.392 272.539,389.856 274.699,391.621 C 276.751,393.24 278.911,393.709 280.783,392.341 C 282.655,390.829 285.283,386.149 285.607,383.017 C 285.751,379.741 284.058,376.501 282.043,373.693 C 279.919,370.922 275.887,367.754 273.259,366.529 C 270.524,365.197 267.86,364.334 266.095,366.17 C 264.223,368.078 263.035,373.657 262.675,377.653 C 262.279,381.578 260.299,384.817 263.936,389.462 C 267.536,394.034 274.196,399.182 284.204,405.05 L 284.204,405.05 C 295.4,395.438 304.616,388.489 312.68,383.378 C 320.599,378.335 326.827,375.635 331.651,375.131 L 331.651,375.131 z "
   style="fill:white;fill-rule:evenodd;stroke:black;stroke-width:0.036;stroke-miterlimit:10"
   id="path129" />
<path
   d="M 274.951,354.898 C 280.279,350.362 286.471,345.934 293.959,341.327 C 301.447,336.646 310.015,332.362 319.231,327.358 C 328.338,322.174 341.01,315.514 347.959,311.411 C 354.727,307.343 358.507,304.679 359.587,303.274 L 359.587,303.274 C 363.331,306.838 366.571,308.854 369.703,309.466 C 372.726,310.006 377.803,309.25 377.839,306.766 C 377.803,304.21 375.139,300.07 369.703,294.346 L 369.703,294.346 C 372.439,289.954 376.759,285.346 382.519,279.982 C 388.351,274.438 396.991,266.338 404.262,262.486 C 411.426,258.634 418.914,256.078 425.214,257.446 C 431.334,258.814 438.318,265.582 441.162,270.658 C 443.97,275.734 444.87,281.494 441.918,287.362 C 438.714,293.05 430.254,299.566 422.514,304.821 C 414.558,309.969 404.659,313.893 395.334,318.393 C 386.046,322.821 376.866,326.961 367.362,331.209 L 367.362,331.209 C 367.542,325.881 366.858,321.633 365.022,318.033 C 363.114,314.469 357.534,310.077 356.49,309.86 C 355.374,309.501 357.822,313.713 358.83,316.089 C 359.766,318.393 362.034,320.373 362.718,323.829 C 363.33,327.285 363.33,331.425 362.718,336.644 L 362.718,336.644 C 352.279,343.413 344.43,349.064 339.03,353.745 C 333.63,358.425 333.414,361.772 330.462,364.617 C 327.33,367.209 323.154,368.18 321.138,370.053 C 319.159,371.925 323.622,372.069 318.834,375.885 C 313.866,379.665 305.118,385.101 292.05,392.589 L 292.05,392.589 C 294.786,386.397 295.866,380.961 295.147,375.885 C 294.355,370.665 291.115,365.805 287.766,362.277 C 284.347,358.715 280.171,356.303 274.951,354.898 L 274.951,354.898 z "
   style="fill:white;fill-rule:evenodd;stroke:black;stroke-width:0.036;stroke-miterlimit:10"
   id="path131" />
<path
   d="M 424.459,311.015 C 424.639,313.499 425.539,316.271 427.159,319.187 C 428.815,322.103 431.047,325.164 434.142,328.511 L 434.142,328.511 C 425.107,331.103 415.71,333.515 405.811,335.891 C 395.767,338.231 381.294,340.571 374.743,342.479 C 368.191,344.315 365.527,345.647 366.607,346.763 L 366.607,346.763 L 368.155,334.739 L 368.155,334.739 C 383.995,328.511 395.443,323.975 403.47,321.132 C 411.174,318.18 411.642,319.332 415.134,317.64 C 418.663,315.911 421.723,313.751 424.459,311.015 L 424.459,311.015 z "
   style="fill:white;fill-rule:evenodd;stroke:black;stroke-width:0.036;stroke-miterlimit:10"
   id="path133" />
<path
   d="M 359.983,343.271 C 356.239,344.208 351.919,347.051 347.167,351.803 C 342.343,356.591 337.087,362.999 331.255,371.603 L 331.255,371.603 C 338.024,366.744 343.495,362.603 348.356,359.183 C 353.036,355.691 356.78,353.063 359.587,351.011 L 359.587,351.011 C 359.695,348.455 359.839,345.862 359.983,343.271 L 359.983,343.271 z "
   style="fill:white;fill-rule:evenodd;stroke:black;stroke-width:0.036;stroke-miterlimit:10"
   id="path135" />
<path
   d="M 358.831,398.387 C 353.287,401.411 348.931,404.687 345.619,408.503 C 342.199,412.175 339.355,416.495 339.031,420.923 C 338.598,425.351 340.147,430.751 343.675,434.891 C 347.131,438.959 352.568,442.2 359.984,445.007 L 359.984,445.007 C 352.244,438.887 347.456,433.055 345.62,427.511 C 343.712,421.751 346.412,416.495 348.716,411.599 C 350.947,406.703 354.188,402.347 358.831,398.387 L 358.831,398.387 z "
   style="fill:white;fill-rule:evenodd;stroke:black;stroke-width:0.036;stroke-miterlimit:10"
   id="path137" />
<path
   d="M 328.915,267.167 C 328.339,268.931 325.747,271.163 321.139,274.151 C 316.387,277.031 309.799,280.523 300.98,284.627 L 300.98,284.627 C 302.744,287.183 304.328,289.127 306.02,290.459 C 307.604,291.719 309.152,292.367 310.664,292.402 L 310.664,292.402 C 318.548,286.859 322.544,284.266 323.084,284.627 C 323.444,284.987 313.688,292.907 313.4,294.347 C 313.112,295.499 320.599,291.791 321.139,292.403 C 321.535,293.088 316.747,295.067 316.099,298.2 C 315.379,301.296 315.955,307.523 317.287,310.655 C 318.547,313.643 320.743,315.408 323.875,316.092 L 323.875,316.092 C 324.271,308.748 326.215,302.916 330.104,298.2 C 333.956,293.483 341.408,289.668 346.772,288.119 C 352.028,286.463 356.635,286.643 361.171,288.515 L 361.171,288.515 C 357.643,285.275 353.9,283.511 349.507,283.079 C 344.971,282.611 336.944,286.247 335.143,285.779 C 333.452,285.167 340.003,280.703 339.391,279.587 C 338.564,278.435 331.831,279.695 330.86,278.795 C 329.923,277.751 333.847,275.699 333.595,273.755 C 333.199,271.811 331.688,269.615 328.915,267.167 L 328.915,267.167 z "
   style="fill:white;fill-rule:evenodd;stroke:black;stroke-width:0.036;stroke-miterlimit:10"
   id="path139" />
</svg>